grf
version=1
nRows=6
nColumns=37
inDegrees=no
endheader
time	ground_force_1_vx	ground_force_1_vy	ground_force_1_vz	ground_force_1_px	ground_force_1_py	ground_force_1_pz	ground_moment_1_mx	ground_moment_1_my	ground_moment_1_mz	ground_force_2_vx	ground_force_2_vy	ground_force_2_vz	ground_force_2_px	ground_force_2_py	ground_force_2_pz	ground_moment_2_mx	ground_moment_2_my	ground_moment_2_mz	ground_force_3_vx	ground_force_3_vy	ground_force_3_vz	ground_force_3_px	ground_force_3_py	ground_force_3_pz	ground_moment_3_mx	ground_moment_3_my	ground_moment_3_mz	ground_force_4_vx	ground_force_4_vy	ground_force_4_vz	ground_force_4_px	ground_force_4_py	ground_force_4_pz	ground_moment_4_mx	ground_moment_4_my	ground_moment_4_mz
      0.00000000	      0.00000000	     -0.00000000	      0.00000000	      0.00000000	      0.00000000	      0.00000000	      0.00000000	      0.00000000	      0.00000000	    -10.18633080	     35.99613571	   -380.85729980	   -228.78325811	  -1096.09717521	      0.00000000	      0.00000000	     -0.00000000	   2305.73999234	      6.97197068	    -36.76155914	   -401.53802490	   -266.88136907	   -755.95084894	      0.00000000	     -0.00000000	     -0.00000000	  -2059.29780034	      0.00000000	     -0.00000000	      0.00000000	      0.00000000	      0.00000000	      0.00000000	      0.00000000	      0.00000000	      0.00000000
      0.01000000	      0.00000000	     -0.00000000	      0.00000000	      0.00000000	      0.00000000	      0.00000000	      0.00000000	      0.00000000	      0.00000000	     -9.94297123	     35.83042145	   -378.48059082	   -229.10896487	  -1094.59661901	      0.00000000	      0.00000000	      0.00000000	   2353.60564804	      6.92323173	    -36.74182189	   -402.65060425	   -266.42708315	   -755.66321383	      0.00000000	      0.00000000	     -0.00000000	  -2087.00528283	      0.00000000	     -0.00000000	      0.00000000	      0.00000000	      0.00000000	      0.00000000	      0.00000000	      0.00000000	      0.00000000
      0.02000000	      0.00000000	     -0.00000000	      0.00000000	      0.00000000	      0.00000000	      0.00000000	      0.00000000	      0.00000000	      0.00000000	     -9.94342327	     35.61114120	   -379.77780151	   -228.92604969	  -1095.06868737	      0.00000000	      0.00000000	      0.00000000	   2401.68853638	      6.54852022	    -36.61734448	   -403.52322388	   -267.62479661	   -755.60352176	      0.00000000	      0.00000000	     -0.00000000	  -2055.53958290	      0.00000000	     -0.00000000	      0.00000000	      0.00000000	      0.00000000	      0.00000000	      0.00000000	      0.00000000	      0.00000000
      0.03000000	      0.00000000	     -0.00000000	      0.00000000	      0.00000000	      0.00000000	      0.00000000	      0.00000000	      0.00000000	      0.00000000	     -9.76537323	     35.97207642	   -379.58642578	   -229.36463282	  -1095.63531316	      0.00000000	      0.00000000	      0.00000000	   2400.42189647	      6.85115494	    -36.67384017	   -404.79232788	   -267.03190144	   -754.62543812	      0.00000000	      0.00000000	     -0.00000000	  -2116.13653323	      0.00000000	     -0.00000000	      0.00000000	      0.00000000	      0.00000000	      0.00000000	      0.00000000	      0.00000000	      0.00000000
      0.04000000	      0.00000000	     -0.00000000	      0.00000000	      0.00000000	      0.00000000	      0.00000000	      0.00000000	      0.00000000	      0.00000000	     -9.56643391	     35.89866257	   -379.42010498	   -229.13095980	  -1095.92151317	      0.00000000	      0.00000000	      0.00000000	   2503.91129723	      6.68495000	    -36.71031629	   -403.90612793	   -267.09415844	   -755.46918611	      0.00000000	      0.00000000	     -0.00000000	  -2079.23145277	      0.00000000	     -0.00000000	      0.00000000	      0.00000000	      0.00000000	      0.00000000	      0.00000000	      0.00000000	      0.00000000
      0.05000000	      0.00000000	     -0.00000000	      0.00000000	      0.00000000	      0.00000000	      0.00000000	      0.00000000	      0.00000000	      0.00000000	     -9.47744942	     36.18694305	   -379.79235840	   -229.25869817	  -1096.19942184	      0.00000000	      0.00000000	     -0.00000000	   2503.39008085	      6.24627124	    -36.95482690	   -405.22131348	   -267.25210397	   -755.03123429	      0.00000000	      0.00000000	     -0.00000000	  -2040.18152527	      0.00000000	     -0.00000000	      0.00000000	      0.00000000	      0.00000000	      0.00000000	      0.00000000	      0.00000000	      0.00000000
